/* XPM */
static char *_646668171847[] = {
/* columns rows colors chars-per-pixel */
"64 64 232 2 ",
"   c #033F06",
".  c #14013C",
"X  c #3C003C",
"o  c #760602",
"O  c #690B03",
"+  c #762C33",
"@  c #602235",
"#  c #0A4809",
"$  c #244500",
"%  c #15730F",
"&  c #325932",
"*  c #1A671E",
"=  c #7A4402",
"-  c #735B05",
";  c #706F11",
":  c #686A1A",
">  c #1D0758",
",  c #170748",
"<  c #21014C",
"1  c #311150",
"2  c #04304B",
"3  c #3A2E59",
"4  c #2E0F70",
"5  c #490448",
"6  c #520F52",
"7  c #5B324E",
"8  c #71284D",
"9  c #6C3852",
"0  c #783B5B",
"q  c #6D2E4E",
"w  c #4E106F",
"e  c #6F1372",
"r  c #681E43",
"t  c #004948",
"y  c #125041",
"u  c #0B7473",
"i  c #336F6E",
"p  c #1C5959",
"a  c #6F4559",
"s  c #7B5567",
"d  c #774F74",
"f  c #505A73",
"g  c #8D0C08",
"h  c #B21110",
"j  c #BC2102",
"k  c #94381D",
"l  c #D81606",
"z  c #D5140F",
"x  c #E90A07",
"c  c #F60601",
"v  c #FC0103",
"b  c #F40804",
"n  c #E61000",
"m  c #E50E1E",
"M  c #DD1625",
"N  c #CF1F29",
"B  c #EC0D21",
"V  c #D2222C",
"C  c #B76D10",
"Z  c #894828",
"A  c #FF5B12",
"S  c #FE6727",
"D  c #CC612D",
"F  c #913958",
"G  c #923B68",
"H  c #8E7554",
"J  c #935B6B",
"K  c #AC4E79",
"L  c #9B6163",
"P  c #018D02",
"I  c #078A0F",
"U  c #188400",
"Y  c #178300",
"T  c #008C10",
"R  c #038614",
"E  c #178C1B",
"W  c #298200",
"Q  c #008E34",
"!  c #0E8A2A",
"~  c #7D8F09",
"^  c #18894C",
"/  c #18B77E",
"(  c #728B67",
")  c #9F931A",
"_  c #FE8E02",
"`  c #F98E0A",
"'  c #EF9100",
"]  c #EB9406",
"[  c #F09100",
"{  c #FF8A12",
"}  c #FB9413",
"|  c #F3932C",
" . c #DFAA2D",
".. c #BAE813",
"X. c #BBE515",
"o. c #FAC700",
"O. c #F8C800",
"+. c #F5C502",
"@. c #F4C714",
"#. c #FDFC04",
"$. c #FFF60F",
"%. c #F6FF0E",
"&. c #F7FB06",
"*. c #FBF815",
"=. c #CDDB3E",
"-. c #D8EB37",
";. c #FCF728",
":. c #F8F736",
">. c #FCCE20",
",. c #9B916A",
"<. c #9C9A60",
"1. c #EEE447",
"2. c #2F0B8E",
"3. c #2B0E85",
"4. c #39098B",
"5. c #3B0696",
"6. c #330B90",
"7. c #311189",
"8. c #42068A",
"9. c #5A068E",
"0. c #440094",
"q. c #440098",
"w. c #5A0E8E",
"e. c #600295",
"r. c #791B89",
"t. c #24419E",
"y. c #244896",
"u. c #22508B",
"i. c #2541A1",
"p. c #696387",
"a. c #841387",
"s. c #850795",
"d. c #800C91",
"f. c #880687",
"g. c #B75C8A",
"h. c #97798B",
"j. c #8D7FA2",
"k. c #FF5E95",
"l. c #FF6496",
"z. c #F77099",
"x. c #D670A4",
"c. c #E376AD",
"v. c #FD6AB3",
"b. c #F86AB2",
"n. c #EB79B4",
"m. c #F37BB8",
"M. c #F675B6",
"N. c #F870AA",
"B. c #C86095",
"V. c #11BC84",
"C. c #37BC86",
"Z. c #04BCBA",
"A. c #0CBDAB",
"S. c #29A8A9",
"D. c #319C8A",
"F. c #689085",
"G. c #07C2AF",
"H. c #08C1AF",
"J. c #00C1BF",
"K. c #09C2B0",
"L. c #16C0BF",
"P. c #2EC2B0",
"I. c #26B6CC",
"U. c #27B4D1",
"Y. c #28B3D0",
"T. c #39BEC7",
"R. c #00C1C1",
"E. c #16C0C0",
"W. c #2DC3C2",
"Q. c #AE8790",
"!. c #87A485",
"~. c #A4A19B",
"^. c #AAA69E",
"/. c #BEBB92",
"(. c #B899A9",
"). c #BA9BB8",
"_. c #ACA8A2",
"`. c #B2ADA8",
"'. c #B6B3AC",
"]. c #BDBBB4",
"[. c #919FA2",
"{. c #F381BB",
"}. c #C7B9BB",
"|. c #C7A5AE",
" X c #E1BBB8",
".X c #C79C94",
"XX c #B6CCB5",
"oX c #C6C2BA",
"OX c #C9C5BD",
"+X c #CCCABE",
"@X c #D2D0A7",
"#X c #B3A5C3",
"$X c #CFB8CB",
"%X c #B0CED0",
"&X c #9FC6C5",
"*X c #C9C6C1",
"=X c #CCC9C3",
"-X c #C6C5C1",
";X c #D1CDC5",
":X c #D6C6CA",
">X c #D5D1C6",
",X c #D6D3CB",
"<X c #DAD6CD",
"1X c #DDD9CF",
"2X c #DAD6D2",
"3X c #DEDBD3",
"4X c #D9D9D6",
"5X c #D1C6D5",
"6X c #E5DFD4",
"7X c #E4D8DB",
"8X c #F3D2D3",
"9X c #E6E0D4",
"0X c #E8E2D6",
"qX c #E5E2DA",
"wX c #EAE4DA",
"eX c #ECE8DD",
"rX c #F8F2DA",
"tX c #F5E8CD",
"yX c #F1DCE5",
"uX c #EBE9E4",
"iX c #F5ECE9",
"pX c #FFFEED",
"aX c #F8F7E6",
"sX c #F9E7F4",
"dX c #EDFFFF",
"fX c #F4F3F2",
"gX c #FDF5F3",
"hX c #FDFAF6",
"jX c #FEFDFC",
"kX c #F7F6FD",
"lX c #E6EDED",
"zX c #D6E2E0",
/* pixels */
"9X9X9X9X9X9X9X9X9X9X9X9X9X9X9X9X9X9X9X9X9X9X9X9X9X9X9X9X9X9X6X6X9X9X9X9X9X9X9X9X9X9X9X9X9X9X9X9X9X9X9X9X9X6X9X9X9X9X9X9X9X9X9X9X",
"9X9X9X9X9X9X9X6X9X9X9X9X9X9X6X6X9X9X9X9X9X6X9X9X9X9X9X9X9X9X6X9X9X9X6X6X9X9X9X9X9X9X9X9X9X9X9X9X9X9X9X9X9X9X9X9X9X9X9X9X9X9X9X6X",
"9X9X9X9X9X9X6X9X9X9X9X9X9X9X6X6X9X9X9X9X9X9X9X9X6X6X9X9X9X9X9X9X9X9X9X0X9X9X6X0X9X9X9X9X9X9X9X9X9X9X9X9X9X9X9X9X9X9X9X9X9X9X9X9X",
"9X9X9X9X9X9X6X6X9X9X9X9X9X6X6X6X9X9X9X9X9X9X9X9X6X9X9X9X9X9X9X9X9X9X6X6X9X9X9X6X9X9X9X9X9X9X9X9X9X9X9X9X9X9X9X9X9X9X9X9X9X9X9X9X",
"9X9X9X9X9X9X9X9X9X9X9X9X9X9X9X9X9X0X6X9X6X9X9X9X6X6X9X9X9X9X9X9X6X6X6X6X9X9X9X9X9X9X9X9X9X9X9X9X9X9X6X6X9X9X6X6X9X9X9X9X9X9X9X9X",
"9X9X9X9X9X9X9X9X9X9X9X9X9X9X9X9X9X9X9X9X9X9X9X9X6X6X9X9X9X9X9X9X6X6X6XtX9X9X9X9X3X9X9X9X3X9X9X9X9X9X0X0X9X9X9X9X9X9X9X9X9X9X9X9X",
"9X9X9X9X9X9X9X9X9X9X9X9X9X9X9X9X9X9X9X9X9X9X6X6X9X9X9X9X9X6X9X9X6X6X9X9X9X9X9X9X9X9X9X9X0X9X9X9X9X9X6X6X9X9X9X9X9X9X9X9X9X9X6X7X",
"9X6X9X9X9X9X9X9X9X9X9X9X9X9X9X9X0X9X0X9X9X9X0X0X9X9X9X9X9X9X9X9X6X6X9X9X9X9X0X6X0X0X0X0X0X0X0X9X9X6X6X6X9X9X9X9X9X9X9X9X9X9X9X0X",
"6X6X9X9X9X9X9X9X9X9X9X9X9X9X9X9X0X3X1X1X1X<X<X<X1X6X9X9X0X9X9X9X6X9X9X9X0X0X9X3X<X<X<X<X1X1X6X9X9X9X9X9X9X9X9X9X9X9X9X9X9X9X9X9X",
"6X9X9X9X6X9X9X9X6X9X9X6X9X0X9X<X,X4XuXgXhXjXjXgXuX9X<X1X6X0X9X9X6X9X0X9X1X,X<XeXiXjXhXjXgXgX7X<X<X3X9X9X9X9X9X9X9X9X9X9X9X9X9X9X",
"9X9X9XtX9X9X9X6X9X9X6X9X6X<X,XuXjXjXsX7X}.$X$X8XgXjXhXfX3X<X9X9X6X0X1X,XuXjXjXjXyX:X$X|.:XyXkXkXhXqX,X6X0X9X9X9X9X6X6X9X9X9X9X9X",
"9X9X9X9X9X9X9X9X0X6X0X6X,XuXjXkX).J 9 9 F a 0 9 9 s (.sXjXfX1X3X0X;X6XhXjX5XJ 0 9 9 0 G 0 q a h.7XjXhXqX<X0X9X0X9X6X6X6X9X9X9X6X",
"9X9X9X9X6X6X6X6X6X7X<X,XgXjX(.q F g.c.m.m.m.m.n.c.B.G q Q.jXjX7X=XeXjX7Xs 8 K x.n.m.m.m.m.n.x.K q s yXjXiX<X9X9X6X9X9X6X9X9X6X9X",
"9X9X9X9X9X9X6X6XwX<X,XhXsXs q x.m.v.b.b.b.b.v.v.v.v.m.x.0 a sXjXiXjX).@ g.n.M.v.b.b.v.v.b.b.v.M.n.g.7 (.jXiX<X9X9X9X9X6X9X9X9X9X",
"9X9X9X9X6X6X0X6X1X;XjXiXq K {.M.b.v.v.v.v.v.v.v.v.v.b.M.{.K q sXjX|.r x.m.N.b.v.v.v.v.v.v.v.v.v.b.m.c.r h.hXiX<X9X9X9X0X9X9X9X9X",
"9X9X9X9X0X6X6X6X=XgXiX+ K z.k.l.k.k.k.k.k.k.k.k.k.k.k.k.l.z.F L 8X@ l.l.k.k.k.k.k.k.k.k.k.k.k.k.l.k.l.z.+ Q.jXeX6X0X6X9X9X9X9X9X",
"9X9X9X9X6X6X0X;X9XhXF g V M B B B B B B B B B B B B B B B M N g o h M B B B B B B B B B B B B B B B m M V o  XjX7X9X9X0X9X9X9X9X",
"9X9X9X6X6X9X6XoXhX|.g z x c v v v v v v v v v v v v v v v b x z h z x v v v v v v v v v v v v v v v v c x h + kXiX<X0X9X9X9X3X9X",
"9X9X9X9X9XwX;X1XjX+ h x c v v v v v v v v v v v v v v v v v b b b b v v v v v v v v v v v v v v v v v v b z o .XgX<X9X9X9X9X9X9X",
"9X9X9X6X9X0X}.gX XO z b c c c c c c c c c c c c c c c c c c c c v v c c c c c c c c c c c c c c c c c c b x h Z gXeX3X9X9X9X9X9X",
"9X6X9X9X9X9X].hXL g j n n n n n n n n n n n n n n n n n n n n n n n n n n n n n n n n n n n n n n n n n n l j o 8XhX<X0X9X9X9X9X",
"9X9X9X9X0X<X*XpXZ D S A A A A A A A A A A A A A A A A A A A A A A A A A A A A A A A A A A A A A A A A A A A S k .XjX<X0X9X9X9X9X",
"9X9X6X9X0X;X,XaX= | | { { { { { { { { { { { { { { { { { { { { { { { { { { { { { { { { { { { { { { { { { { { | C ,.hX,XqX9X9X9X9X",
"6X6X6X6XwX;X4XtX= | ` _ _ _ _ _ _ _ _ _ _ _ _ _ _ _ _ _ _ _ _ _ _ _ _ [ _ _ _ _ _ _ _ _ _ _ _ _ _ _ _ _ _ [ } C H hX2X9X9X9X9X9X",
"9X9X9X6XwX+X4XtX= | ] ` _ _ _ _ _ _ _ _ _ _ _ _ _ _ _ _ _ _ _ _ _ _ _ _ _ _ _ _ _ _ _ _ _ _ _ _ _ _ _ _ _ _ ] C H hX<X9X9X3X9X9X",
"9X9X6X6XeX+X2XrX= | ] ' ' ' [ ' ' ' ' ' ' ' ' ' [ ' ' ] ' ' ' ' ' ' ' ' ' ' ' [ ' ' [ ' ' [ ' [ [ ] [ ' ] ] ] C H jX,X9X9X9X9X9X",
"9X9X6X6X0X>X;XrX-  .@.+.o.O.o.o.o.o.o.o.o.o.o.o.o.o.o.o.o.O.o.o.o.o.o.o.o.o.o.o.o.O.o.o.O.O.o.o.O.O.O.O.O.O.>.C ,.jX<X9X9X9X9X9X",
"9X9X9X9X0X1X].aXH =.;.$.$.$.$.$.$.$.$.$.$.$.$.$.$.$.$.$.$.$.$.$.$.$.$.$.$.$.$.*.$.$.$.$.*.$.$.$.$.$.$.$.$.*.;.) /.jX,X0X9X9X9X9X",
"9X9X9X9X9X9X`.pX<.) ;.#.#.#.#.#.#.#.#.#.#.#.#.#.#.#.#.#.#.#.#.#.#.#.#.#.#.#.#.#.#.#.#.#.#.#.#.#.#.#.#.#.&.*.:.; tXfX<X0X9X9X9X9X",
"9X9X9X9X9XwX'.rX@X; :.%.&.#.&.&.#.#.#.#.#.#.#.#.&.#.#.#.#.#.#.#.#.#.#.&.#.&.#.&.#.&.#.#.#.&.#.#.#.&.#.#.&.:.=.; rX3X3X0X9X9X9X9X",
"9X9X9X9X9XwXOX+XpX: -.%.%.%.%.%.%.%.%.%.%.%.%.%.%.%.%.%.%.%.%.%.%.%.%.%.%.%.%.%.%.%.%.%.%.%.%.%.%.%.%.%.%.-.) <.pX>X0X9X9X9X9X9X",
"9X9X9X9X9X9X1X`.hX<.~ -.X.X.X...X.X...................................X.X.X.X.X.....X.....X.X.X.X.....X...=.: tXaX,X0X9X9X9X9X9X",
"9X9X9X9X6X6XwX'.qXaX$ % W U U U U U U U U U U U U U U U U U U U U U U U U U U U U U U U U U U U U U U U W $ ( hX,X3X9X9X9X9X9X9X",
"6X9X9X9X6X6XwX>X`.dX,.# E P P P P P P P P P P P P P P P P P P P P P P P P P P P P P P P P P P P P P P I % # fXhX>XqX9X9X9X9X9X9X",
"9X9X6X9X6X6X9XwX`.zXjX& % R T P P P P P P P P P P P P P P P P P P P P P P P P P P P P P P P P P P P P E # !.jX,X3X9X9X9X9X9X9X9X",
"9X9X9X9X6X6X9X0X,X_.jXXX  E R T T T T T T T T T T T T T T T T T T T T T T T T T T T T T T T T T R R E % & hXlX>XqX9X9X9X9X9X9X9X",
"9X9X9X9X9X9X9X9XeX'.OXhX( # ^ Q Q Q Q Q Q Q Q Q Q Q Q Q Q Q Q Q Q Q Q Q Q Q Q Q Q Q Q Q Q Q Q Q Q Q * # zXdX=X9X9X9X9X9X9X9X9X9X",
"9X9X6X9X9X9X9X9X9X9X~.lXjX& ^ C.V.V.V.V.V.V.V.V.V.V.V.V.V.V.V.V.V.V.V.V.V.V.V.V.V.V.V.V.V.V.V.V./ C.* _.dX4X2X0X9X9X9X9X9X9X9X9X",
"9X9X9X9X9X9X9X9X9X0X>X~.jXlXy D.P.A.A.K.G.G.G.G.G.K.K.K.H.H.H.H.G.G.H.H.H.G.G.H.G.G.G.G.A.G.G.A.S.p F.dXqX;X0X6X9X9X9X9X9X9X9X9X",
"9X9X9X9X9X9X9X9X9X9XeXoX'.jX%Xt S.E.R.R.R.R.R.R.R.R.R.R.R.R.R.R.R.J.R.R.R.R.R.R.R.R.R.R.R.Z.Z.W.u i jXaX*X0X6X0X9X9X9X9X9X9X9X9X",
"9X9X9X9X9X9X6X6X6X6X6XtX'.XXjX&Xt S.E.R.R.R.R.R.J.J.J.J.J.R.J.R.J.J.J.J.J.J.J.R.R.R.Z.R.Z.Z.W.u i dXfX*X6X0X6X6X9X9X9X9X9X9X9X9X",
"9X9X9X9X9X9X9X9X6X9X6X6XqX^.-XjX&Xt S.U.I.U.U.U.U.U.U.U.U.U.U.U.U.U.U.U.Y.Y.Y.U.Y.Y.U.U.I.T.u i dXhX=X6X0X6X6X6X9X9X9X9X9X9X9X9X",
"9X9X6X9X9X9X9X9X9X9X6X9X9X0X^.*XjX%X2 p y.y.t.t.t.t.t.t.t.t.t.i.t.t.t.t.t.t.t.t.i.t.i.y.u.2 i dXfX=X3X0X6X6X9X9X9X9X9X9X9X9X9X9X",
"9X9X9X9X9X9X9X9X9X6X6X9X9X9X0X^.-XjX5X, > 3.3.2.2.2.2.2.2.2.2.2.2.2.2.2.2.2.6.6.2.2.7.4 , p.kXgX=X<X0X6X9X9X9X9X9X9X0X9X9X9X9X9X",
"9X9X9X9X9X9X9X9X9X9X9X9X9X9XqXqX~.$XjXlX3 > 4.4.4.5.5.5.5.5.q.5.5.5.0.5.5.5.5.5.6.6.4 . [.kXfX-X<XwX9X9X9X9X6X9X9X9X9X9X9X9X9X9X",
"9X9X9X9X9X9X9X9X9X9X9X9X9X9X9X9XqX`.'.jXjXf < 8.8.5.q.q.q.q.q.q.0.0.0.0.0.0.0.4.4.4 < #XkXuXoX3X0X9X9X9X6X9X6X9X9X9X9X9X9X9X9X9X",
"9X9X9X9X9X9X9X9X9X9X9X9X9X9X9X9X9XeX]._.kXjX[.. 4 8.8.0.0.0.0.0.0.0.0.0.0.8.8.4.< 3 7XjX7XoX6X0X6X6X9X9X9X6X9X9X6X6X9X9X9X9X9X9X",
"9X9X9X9X9X9X9X9X9X9X9X9X9X9X9X9X9X9XqXoX~.uXjX$X1 1 w.w.9.e.e.e.e.e.e.e.9.w.w > p.kXkX2XOX0X0X6X9X6X6X6X9X9X9X9X6X9X9X9X9X9X9X9X",
"9X9X9X9X9X9X9X9X9X9X9X9X9X9X9X9X9X9X6XeX+X^.=XjXsXd 1 e d.s.s.s.s.s.s.f.r.6 1 #XjXfX*X;XwX9X9X9X9X9X6X9X9X9X9X9X9X9X9X9X9X9X9X9X",
"9X9X9X9X9X9X9X9X9X6X9X9X9X9X9X9X9X9X9X6XwX9X`.`.fXjX).1 6 a.f.f.f.f.f.e 5 d sXjXqX}.1XwX6X9X9X9X9X9X9X9X6X9X9X9X9X9X9X9X9X9X9X9X",
"9X9X9X9X9X9X9X9X9X9X9X9X9X9X9X9X9X9X9X9X9X9XeXOX~.2XkXsXd X e a.a.a.6 5 ).kXgX=XOX9X0X6X9X9X9X9X9X9X9X9X9X9X9X9X9X9X9X9X9X9X9X9X",
"9X9X9X9X9X9X9X9X9X9X9X9X9X6X9X9X9X6X9X9X9X9X9XeX2X^.'.gXjX$X6 5 e 5 p.sXjXqX}.,XqX9X9X9X9X9X9X9X9X9X9X9X9X9X9X9X9X9X9X9X9X9X9X9X",
"9X9X9X9X9X9X9X9X9X9X9X9X9X9X9X9X9X9X9X9X6X6X9X9X7XeXoX~.,XjXkXh.7 $XjXgX=XOX9XwX9X9X9X9X9X9X9X9X9X9X6X9X9X9X9X9X9X9X9X9X9X9X9X9X",
"9X9X9X9X9X9X9X9X9X9X6X9X9X9X9X9X9X9X9X6X6X6X9X9X9X9XwX6X`._.uXjXhXhX4XoX,XwX9X9X9X9X9X9X9X9X9X9X9X9X9X9X9X9X9X9X9X9X9X9X9X9X9X9X",
"9X9X9X9X9X6X9X9X9X9X9X9X9X9X9X9X9X9X9X9X9X9X9X9X9X9X9X9XeX;X_.'.].].=X0X0X9X9X9X6X6X9X9X9X9X9X9X9X9X9X9X9X9X9X9X9X9X9X9X9X9X9X9X",
"9X9X9X9X9X9X9X9X9X9X9X9X9X9X9X9X9X9X9X9X9X9X9X6X9X9X9X9X6X0XwX1X1X9XqX6X9X9X9X9X9X9X9X9X9X9X9X9X9X9X9X9X9X9X9X9X9X9X9X9X9X9X9X9X",
"9X9X9X9X9X9X9X9X9X9X9X9X9X9X9X9X9X9X9X9X9X9X9X6X9X9X0X9X9X6X6X9X0X6X6X6X9X9X9X9X9X9X9X9X9X9X9X9X9X9X9X9X9X9X9X9X9X9X9X9X9X9X9X9X",
"9X9X9X9X0X9X9X9X9X9X9X9X9X6X9X9X9X9X9X9X9X9X9X9X9X9X9X9X3X9X9X9X0X9X6X9X9X9X9X9X9X9X9X9X9X9X9X9X9X9X9X9X9X9X9X9X9X9X9X9X9X9X9X9X",
"9X9X9X9X6X6X9X9X9X9X9X9X9X9X9X9X9X9X9X9X9X9X9X6X9X9X9X9X9X9X9X9X9X9X9X9X9X9X9X9X9X9X9X9X6X6X0X9X9X9X9X9X9X9X9X9X9X9X9X9X9X9X9X9X",
"9X9X9X9X9X9X9X9X9X9X9X9X9X9X9X9X9X9X9X9X9X9X9X6X9X9X9X9X9X9X9X9X9X9X9X6X9X9X9X9X9X9X9X9X9X9X6X6X9X9X9X9X9X9X9X9X9X9X9X9X9X9X9X9X",
"9X9X0X9X9X9X9X9X9X9X9X9X9X9X9X9X9X9X9X9X9X9X9X9X9X6X9X6X9X9X9X9X9X9X9X9X9X9X9X9X9X9X9X9X6X6X9X9X9X9X9X9X9X9X9X9X9X9X9X9X9X9X9X9X",
"9X9X9X9X9X9X9X9X9X9X9X9X9X9X9X9X9X9X9X9X9X9X9X9X9X6X9X9X9X9X9X9X9X9X9X9X9X9X9X9X9X9X6X9X6XtX9X9X9X9X9X9X9X9X9X9X9X9X9X9X9X9X9X9X",
"9X9X9X9X9X6X9X9X9X9X9X9X9X9X9X9X9X9X9X9X9X9X9X9X9X9X9X9X9X9X6X6X9X9X6X9X9X9X9X9X9X9X9X9X6X6X9X9X9X9X9X9X9X9X9X9X9X9X9X9X9X9X9X9X",
"9X9X9X9X9X9X9X9X9X9X9X9X9X6X9X9X9X9X9X9X9X9X9X9X9X9X9X9X9X9X6X6X9X9X9X9X9X9X9X9X9X9X9X9X6X6X9X9X6X9X9X9X9X9X9X9X9X9X9X9X9X9X9X9X"
};
