/* XPM */
static char *_646668189665[] = {
/* columns rows colors chars-per-pixel */
"64 64 256 2 ",
"   c #190701",
".  c #181409",
"X  c #2B0300",
"o  c #280802",
"O  c #330400",
"+  c #3B0501",
"@  c #330C02",
"#  c #3B0C01",
"$  c #291408",
"%  c #3B1203",
"&  c #391507",
"*  c #38290B",
"=  c #430C01",
"-  c #480803",
";  c #560902",
":  c #431403",
">  c #4B1403",
",  c #4A1A06",
"<  c #471A09",
"1  c #531303",
"2  c #5C1404",
"3  c #581908",
"4  c #511B11",
"5  c #630C03",
"6  c #6B0C04",
"7  c #740C04",
"8  c #790D06",
"9  c #641505",
"0  c #6B1405",
"q  c #6B1A05",
"w  c #631A09",
"e  c #671909",
"r  c #731A05",
"t  c #7B1B04",
"y  c #781507",
"u  c #721C15",
"i  c #472606",
"p  c #58240A",
"a  c #582816",
"s  c #4C300E",
"d  c #662509",
"f  c #782507",
"g  c #793706",
"h  c #692A16",
"j  c #742B17",
"k  c #6C3417",
"l  c #783518",
"z  c #773826",
"x  c #693828",
"c  c #5B3525",
"v  c #714B11",
"b  c #58482A",
"n  c #70512D",
"m  c #786735",
"M  c #56471B",
"N  c #725245",
"B  c #860D05",
"V  c #960F05",
"C  c #831C06",
"Z  c #8B1D06",
"A  c #881809",
"S  c #9C1406",
"D  c #961908",
"F  c #8A1B12",
"G  c #A41506",
"H  c #A51906",
"J  c #AB1A06",
"K  c #AB1B09",
"L  c #A71607",
"P  c #B31906",
"I  c #B31C09",
"U  c #B91906",
"Y  c #892509",
"T  c #942106",
"R  c #9C2305",
"E  c #972809",
"W  c #99350C",
"Q  c #872B14",
"!  c #87381A",
"~  c #973815",
"^  c #8F300C",
"/  c #A32505",
"(  c #AB2506",
")  c #A52905",
"_  c #AC2C05",
"`  c #AD250A",
"'  c #AD2A0B",
"]  c #A42809",
"[  c #B32D05",
"{  c #B4240B",
"}  c #B8260C",
"|  c #A73309",
" . c #B43305",
".. c #BB3405",
"X. c #BC3B04",
"o. c #B73709",
"O. c #A73A15",
"+. c #B13A12",
"@. c #B52B10",
"#. c #863C22",
"$. c #933D27",
"%. c #A13B22",
"&. c #C41D07",
"*. c #C9240B",
"=. c #D32A0C",
"-. c #C13C05",
";. c #C3380A",
":. c #C52C12",
">. c #C73615",
",. c #D53814",
"<. c #D5310E",
"1. c #E33C18",
"2. c #9B4819",
"3. c #924D0F",
"4. c #A64A17",
"5. c #A55419",
"6. c #B54C15",
"7. c #946410",
"8. c #AB7015",
"9. c #884627",
"0. c #984929",
"q. c #994834",
"w. c #995638",
"e. c #8E5330",
"r. c #A75739",
"t. c #AD542A",
"y. c #8D6934",
"u. c #BA6825",
"i. c #B86639",
"p. c #AF7131",
"a. c #C44305",
"s. c #CA4C05",
"d. c #C74807",
"f. c #CD5305",
"g. c #CE5906",
"h. c #D25B06",
"j. c #D15A08",
"k. c #D64819",
"l. c #D14E14",
"z. c #E5541C",
"x. c #E2471A",
"c. c #D46306",
"v. c #D56209",
"b. c #D76B07",
"n. c #DC7707",
"m. c #C96918",
"M. c #D57715",
"N. c #CF7118",
"B. c #E65623",
"V. c #CC7232",
"C. c #DE6A1F",
"Z. c #955945",
"A. c #AB5B44",
"S. c #926F4C",
"D. c #A96846",
"F. c #B4694C",
"G. c #A77A57",
"H. c #B77956",
"J. c #B47051",
"K. c #B27D64",
"L. c #C77758",
"P. c #C97249",
"I. c #C87A63",
"U. c #E77E51",
"Y. c #B98932",
"T. c #D98613",
"R. c #E28805",
"E. c #E79807",
"W. c #E48F16",
"Q. c #EBA807",
"!. c #EEB506",
"~. c #F1B907",
"^. c #E9A514",
"/. c #D18B2D",
"(. c #E89B36",
"). c #EFAF2D",
"_. c #D6AC30",
"`. c #F1C50A",
"'. c #F3CC15",
"]. c #F2D31B",
"[. c #EECD12",
"{. c #F2D523",
"}. c #F2D82C",
"|. c #F3DC38",
" X c #F1CE30",
".X c #928454",
"XX c #A4855B",
"oX c #B08751",
"OX c #9B8D62",
"+X c #A98766",
"@X c #B88769",
"#X c #BA9A73",
"$X c #B2946E",
"%X c #B2A675",
"&X c #C88548",
"*X c #C88857",
"=X c #D58858",
"-X c #CA965B",
";X c #D6975A",
":X c #D49047",
">X c #E58D54",
",X c #DBA459",
"<X c #D3AD50",
"1X c #E4AA5A",
"2X c #EAB053",
"3X c #C88966",
"4X c #D58968",
"5X c #C99865",
"6X c #D89A66",
"7X c #C69877",
"8X c #D59374",
"9X c #CAA569",
"0X c #D5A468",
"qX c #CAAC75",
"wX c #C9AA78",
"eX c #D5A775",
"rX c #CDB27D",
"tX c #D7B37A",
"yX c #E4AB73",
"uX c #E49B6C",
"iX c #F8DC49",
"pX c #FEE156",
"aX c #F5E143",
"sX c #FDD369",
"dX c #FFE568",
"fX c #B9B18A",
"gX c #BE8E80",
"hX c #D9A886",
"jX c #CEB584",
"kX c #C8BC96",
"lX c #D8BA95",
"zX c #CEAE88",
"xX c #E6A683",
"cX c #E9B78D",
"vX c #CEBEA4",
"bX c #E0A78F",
"nX c #D9D3BB",
"mX c #D0CAAE",
"MX c #E7D8B8",
"NX c #EED4AE",
"BX c #E8C89B",
"VX c #D7D9C8",
"CX c #D8DDD4",
"ZX c #E8DDC6",
"AX c #DCE2D8",
"SX c #DDE0CF",
"DX c #E4E6D8",
"FX c #F6E8CE",
"GX c #E6ECE4",
"HX c #E9F3EC",
"JX c #F5F6E9",
"KX c #EEF9F3",
"LX c #EBF6F1",
"PX c #F1FBF5",
"IX c #F1EFE0",
"UX c #DEE8E3",
/* pixels */
"> > 1 3 2 2 9 e 0 0 r t C C Z Z Y T T R R R R R _ ) / _ _ _ _ _ _ _ [  .[ [  . . .[ [ [ [  .[ [ [ [ ' [ ( ( { ( ( ( / / / R R S ",
"> 1 ; 3 3 9 e e 0 r t t C C Z Z T T R R R R ) ) ) _ _ _ _ _ |  . . . . . . . . . ....... . .[ [  .[ [ [ [ [ [ ( ( ( ( / / H / / ",
"4 ; 3 2 2 e e 0 r y t C Z Z Z R R R R / / R _ ) _ _ _ _ _  . ... ... ... .....X.X...-.;.....X... ... . .[ [ [ } [ ( ( ( ( / / / ",
"; 3 3 9 9 0 0 r r C Z Z Z Z T R R R ) / _ _ _ _ _ _  . . .o.....X.X.X.-.a.a.-.-.a.-.-.;.-.-.-.-.X...X.....;.[ [ [ [ [ ( ( ( ( / ",
"2 3 9 9 e e r y t Z Z Z R R R R R ) ) _ _ _ [ ..X.o.X.X.X.6.6.a.a.a.a.a.d.d.d.s.s.s.s.d.d.d.a.a.a.-.;.-.-.;.-.;.[ [ [ [ [ [ ( ( ",
"2 2 9 9 e y r Y Z T D E R R / ) _ _ |  .o.o. ...-.6.a.a.a.a.d.d.s.f.g.f.f.f.h.f.j.j.j.j.f.f.s.f.d.s.s.s.a.-.-.;.;.;...[ [ [ [ [ ",
"5 5 e e 0 t C A T T E R ) ) ) _ _  . .o.X.6.6.-.a.d.d.s.s.f.g.g.c.c.c.v.c.c.c.c.h.h.v.j.v.j.j.j.h.j.f.f.s.s.a.-.-.-.;...;.[ [ [ ",
"e 9 e y y A A T T R ) R ) ) _  . .o.X.X.-.-.a.d.s.s.f.g.h.v.m.m.u.m.m.m.m.m.m.N.N.M.M.M.M.b.b.b.b.v.j.j.h.f.f.s.s.-.-.-.;...;.[ ",
"e e y t C Z T R R / ] ) _ _  . . .X.6.-.s.s.s.f.g.g.v.v.N.m.p.-X9X7X5X-X5X5X5X-X/./.V.N.N.M.M.M.n.b.b.b.c.c.g.f.f.s.s.-.;.-.-.-.",
"9 0 y t Z T T R / / ) ) |  . .o.X.a.a.s.s.f.g.c.m.m.m.m./.yXNXFXFXFXFXFXFXFXFXNXNXBXtXtX;X:X/./.V.T.M.M.M.b.b.c.h.h.f.s.s.-.-.-.",
"0 r y Z Z T R / / ] _  . . .X.6.6.a.6.f.g.g.c.N.u.&X6XlXFXJXPXJXPXJXJXJXLXIXIXGXIXDXFXFXVXVXVXfX9X-X:XY.T.M.T.n.b.v.h.h.f.s.-.-.",
"0 y t Z T T R R ] ] _  . .X.-.-.d.f.h.g.c.b.N.u.yXNXIXJXPXPXKXLXKXLXHXGXGXUXGXAXAXAXAXSXCXVXVXVXvXkXqX9XY././.T.n.b.b.v.h.f.s.a.",
"r t C Z T R R / ) _ _  .X.6.a.s.s.g.c.c.b.M.V.yXFXJXIXIXGXHXHXHXHXHXHXGXUXAXCXVXVXnXmXmXvXvXfXfXfXfX%X%XOX.XY.Y./.T.n.b.c.c.h.s.",
"y t Z Z T R / ) _ _  .X.X.a.s.s.g.c.c.b.n.N.<XFXDXAXAXDXGXKXKXKXPXKXKXKXHXGXDXDXVXVXVXmXmXfXfXfX%XOXOX.X.X.Xm m 8./.T.R.n.b.c.h.",
"t C Z Z R R R _ _ _  .X.6.a.s.h.c.b.b.n.n.T.cXnXVXAXHXHXLXKXKXKXLXPXKXJXLXGXDXSXSXVXVXnXmXmXfXfX%XOX.X.Xm m m m m v W.W.R.n.n.b.",
"C C Z D R / ) _ _  ...-.a.s.f.c.c.b.n.n.R./.qXnXDXDXHXHXHXKXKXKXPXLXLXLXHXGXDXDXSXVXnXmXmXfXfXfX%XOX.Xm m n b M M s 7.(.E.R.n.n.",
"C Z Z R / / _ _  .o.X.a.d.f.h.c.b.n.n.R.R./.9XnXSXGXIXHXHXKXKXKXKXPXKXLXHXGXSXDXVXVXnXnXmXkXjX%X%XoX.X.Xv v b M * s v _.Q.E.R.R.",
"Z Z T / / / _ [ o.X.a.d.s.g.v.b.n.n.R.R.R.W.<XMXDXGXGXHXHXJXKXKXKXKXLXLXHXDXDXSXVXVXnXmXmXkXfX%X%X.X.Xm m M m M * * v _.^.Q.E.R.",
"Z Z D R ) )  . ...;.d.s.f.h.b.M.n.n.R.R.E.W.9XmXSXDXGXGXGXLXLXLXLXLXLXHXGXDXAXSXVXnXmXmXfXkXfX%XoX.XY.m n v m M s * Y.[.Q.Q.Q.E.",
"D D R / ) _  . .X.6.d.6.6.N.m.N.M.W.W.W.^._.-XBXZXZXDXDXIXJXJXHXJXJXJXDXIXZXMXMXNXnXmXlXkXjX9X#XoX.XY.v n v m s * s Q.[.~.!.!.Q.",
"D T R ) _ _ o.o.6.6.6.V.4X6X;XP.V.N./.W././.-XrXzXmXNXNXMXMXZXZXnXnXnXmXlX5XoX;X-X-X*X-X-X*X-XoXY.oXy.y.3.v m i i s _.'.[.!.!.!.",
"T R R ) ) | | 6.l.P.6XyXcXcXhX8X=X=XV.P.V./.=Xv v oXoXoX.XjXkXkXkXlXkXtX9Xt.5.5.3.4.5.4.4.2.3.5.5.7.5.3.3.v 7.s i d  X'.[.!.~.!.",
"T R R W 4.i.V.&X6XyXxXhXhXbXhXxXuX4XU.U.U.P.t.Y 2 l t.8.p.tXjXjXkXlXjXtX;X5.O.6.+.6.+.+.| | ] | W W | W ^ ~ 2.d i v  X'.[.`.`.!.",
"T T ~ 4XuXuX;X-X3X5XhX@XhXhX8X4XI.P.F.r.O.Z f ~ ; f 5.u.8.1XtXjXjXjXrXeX&X4.| +.' ' _  .' ' ` ' ( ( ( ( / | 2.Y p 7.|.].[.`.`.`.",
"Y ^ 8XcXyX6XL.=XH.=XP.w.xXF.#.z j h j z N Z.Z.4 - 9 3.6.t.eXtXrXtXjXrX0XL.2./ @.( @.' ' ' ] ` K ( ( J / / ) _ W ^ 8.iX{.].[.[.`.",
"^ 8XcXlXeX-Xp.=Xt.w.! ! H.j - 2 x z Z.gXbXBXgXO = 2 W 4.t.0XqXqXrXrXqX9X&X| ) _ ` @.' ' ` K K ] H J J ( H / / E Y /.iX}.{.].[.`.",
"7XcXlXeX5X&Xp.P.w.; d h x + 4 & & < & & 4 c c X # 2 ^ 4.5.6X9XqXrXrXqX9XP.O.| @.' ` { ` K { K K J H H H H / S R t /.pX}.}.].].`.",
"lXlXlXhXoXp.t.0.l + + = & s & n x X @ + - n n X % 1 ^ 4.5.6XqXqXrXrXqX,XP.O.' @.` @.@.{ { K K K J H H H H S T T f (.pX}.}.{.].].",
"lXlXzXhX*Xi.t.2.d : O X 4 $ @ Z.h z k 1 # S.G.X # 1 Q O.5.6XeXqXrXqX9X5XV.W ( [ { @.@.{ } { I K K H H H H D F C g <XpX|.|.}.{.].",
"vXlXzX7X*Xt.2.0.d 4 @ X b c z q.I.H.r.w # X s & @ 1 Y W 2.6XqX9XqXqX9X-Xi.W ( @.{ } } { I I I I K H H S G D A C g 2XpXaX|.}.{.].",
"BXlXhX@Xp.0.! j 3 = + Z.gXhX8X4XL.q.j > # & @ & % 1 Q 4.2.;X0XqXqXqX9X-Xi.R ( @.@.@.:.} } } } P K K H S D D A r g sXpXaX|.}.{.{.",
"vXhX@XH.e.2.g d < + z 8X8X4X4XL.r.u - + @ $ @ & # 1 Y ~ 2.5X0XqXqX9X5X-XV.R ` ` } } } U } U I P K H G S D A C 5 g sXpXaX|.}.}.{.",
"zXwX@XD.0.! w 4 - u I.L.I.L.P.A.$.- + $ $ o o & @ 3 Y O.2.;X9X9XqXqX9X-Xt./ H { @.>.:.@.} U I I K L L S V A y 5 3.dXiXaX|.}.}.{.",
"wX#XD.w.9.h > < + x A.A.P.A.0.~ j - O X X o a & % 3 t ~ ~ ;X-X#X9X9X-X-Xu./ [ @.>.>.:.:.:.:.I I L L H V A F u ; 7.dXiXaX|.|.}.].",
"7X@XD.9.k 4 + & O 4 F Q ~ q.O.Y q 2 3 k z z 9.+ # 3 t E ~ =X-X5X9X9X-X*Xt.o.@.,.,.>.,.:.:.} U I K H S D A B u ; p.dXaXaX|.}.{.].",
"@XG.w.9.p : & @ X c F.I.U.I.L.L.L.J.A.#.Q #.h > # 4 Y W ~ *X-X5X9X5X-X:XV.o.+.>.k.k.} *.&.:.U I L L L D F F 9 > Y.pXaX|.|.}.{.[.",
"H.w.e.k < # @ X - Z.gXbXxX4XF.r.0.l d ; d h 3 < # 3 C E W *X-X5X9X9X;X>XB...k.>.,.>.>.:.:.U &.U K L S F F 8 9 - /.pX|.|.}.{.].[.",
"D.e.h > & & X O Z.I.I.8X8XL.0.r d e 1 1 3 3 3 < # 3 y Y ^ =X-X-X<X0X:X:Xu.;.k.k.+.k.,.:.:.*.&.U K L S V y 6 ; > <XiX|.}.}.{.[.[.",
"w.k i : & @ X 4 Z.I.I.I.L.i.f 2 d h a , : < 4 < + 3 F F ^ L.:X-X-X0X;X/.C.6.>.k.k.k.1.<.<.=.&.&.I L S V F u ; d _.aX X}.{.'.[.[.",
"z p > % & @ X 4 u q.A.t.0.Q 9 1 > > : % < % = > # 3 8 Z ^ =X,X;X<X,X:XV.V.l.k.k.B.B.B.x.,.<.*.&.I L S F y 6 5 d ).|.{.{.'.[.`.`.",
"d > : % & @   O u $.A.r.r.w.l j d p , : % O < > + 3 7 B E uX;X1X1X1X<X(.l.l.B.k.z.B.k.x.1.<.=.&.P L V D y 0 6 g  X}.'.'.`.`.`.~.",
"z a , % & & X X z A.I.xXxX6XL.F.Z.9.k a a a a a O 3 8 F ] >X1X1X1X1X2X(.z.s.l.k.l.k.k.1.=.=.*.&.P L S F 7 5 6 3. X'.'.'.`.~.`.~.",
"l p : O @ @ O h F.I.I.bXyXP.0.#.l d , , 4 < # 4 + 1 8 A E >X6X1X1X1X2X(.C.h.x.z.z.x.<.<.=.*.&.&.I L S B y 9 ; 3.).`.`.`.~.~.~.!.",
"l f d < & o - #.I.I.I.I.4X0.f Q j 2 : : < < # < O 4 8 B E =X>X;X1X2X2X(.C.z.h.z.x.1.<.<.=.=.&.&.P G S A y 5 9 5. X`.~.~.~.!.!.Q.",
"H.*Xr.k 4 + = z $.A.P.P.t.Q t j h d 4 < & & @ & O 4 8 F E =X;X1X1X1X2X(.C.z.z.z.x.<.=.=.=.*.&.U L L V D 8 7 0 5.).~.~.~.!.Q.Q.Q.",
"H.*Xw.q 1 - + 4 $.A.A.$.Y r 5 ; w h d < @ o @ & + - 6 B E >X=X,XyX1X2X(.z.x.x.1.<.=.=.=.*.*.&.U P L S V A t t m.).!.Q.Q.Q.E.E.E.",
"J.H.w.f l p - - - 4 - G.3XF.Z.Z.H.3XI.w.+ & n + = 3 6 y Q =X=X6X0X1X1X>Xz.=.<.=.=.&.&.*.&.&.U U P L G D Z C Y m.).!.Q.E.Q.E.E.R.",
"oXH.0.$.9.w 3 x h + X @XhX5X8XxXxXeX8Xe.@ @ a 4 - 3 6 8 Q U.*X;X0X;X;XV.s.=.=.&.&.&.&.&.&.U U U J L K D B C r 6.).Q.E.E.E.R.R.R.",
"H.D.9.! ! 3 d v 9.j @ a 7XhXxX4X3X4XF.p O   & & # 1 5 7 Q I.*X5X5X-X=XP.} &.&.U U &.U U U U U K P K S D A t r u.W.E.R.R.R.R.n.n.",
"p.0.f l l w l 9.q.z 4 X a e.D.A.A.w.l - o X $ $ % - ; 6 Q I.H.3X5X=X=XV.{ U U U L L L U U U P I L L S D C t f u.W.R.R.n.n.n.n.n.",
"9.l d j k p h l #.k 4 % @ c a 4 a p p # o o $ o & - ; 6 Q I.H.3X3X3X*XF.` L L L L L L L L L L L H S V A 8 0 f t.T.n.n.n.b.n.b.c.",
"d p p h p p d h d p 4 # 4 x N X O % < % @ o o $ & - ; ; j K.H.3X@X3XL.V.D V G V V V V V G G G L G S V A 0 2 f u.M.b.n.b.b.b.h.h.",
"i , p p i p p p p < , # a x gXN & < 4 i = < & o @ + - - z K.K.K.@X@X*Xi.D B V B V V V V S G V G S S D F e ; g u.C.b.v.h.h.h.f.s.",
"i : i i , < < i , , < # a x S.VXZ.i a p 2 n & o @ + - - z I.K.K.@X3XH.r.A B B B B B 8 B V S S S D D F 7 2 ; 9 4.v.h.h.j.f.s.s.s.",
"& & * & & * , i & i < % a a 4 gXZXzXD.v g l % @ @ + 4 - N K.K.K.@X@XH.r.8 8 8 8 8 8 8 8 B B V B D F F 5 - + 1 0.l.s.s.s.s.s.s.a.",
"% : : % % : : > > : , = > 3 3 a K.cXNXcX-Xe.a & @ + - - Z.K.K.K.@X@XH.q.6 6 6 6 6 6 7 7 8 8 7 B 8 B u 9 4 - > 0.6.s.s.a.a.a.a.-.",
"4 w d w p w w w d d u q r f Q Q ! J.cXcXeXG.& $ @ + + = Z.K.K.+X+X@XJ.9.9 6 5 6 6 6 6 7 7 8 8 8 7 7 6 h 4 < + l l.a.-.-.-.;.-.-.",
"e w w q r q f f t Y f f Y T D E Y ^ t.5X7Xy.& * & & + = S.G.G.+X+XK.J.#.; 5 ; 5 5 5 6 8 8 8 y y y 0 ; ; - + O g 6.6.-.;.;.-.-.;.",
"e e e q q r t t t f Z Y Y F T T Y T Y Y ! d i a < 4 3 3 G.G.+XG.G.G.Z.l ; - ; ; ; ; 5 6 y y 8 y t r 9 ; + + = l o.-.;.-.-.;...[ ",
"e e e e q r t t t C t Z A T Z Y T T T E Q 2 @ $ & 4 u n #X$X#X#X#X$XoXe.e u 9 u e e 6 y A C Y T Y Y ! l k k k 0.+.-.....[ [ ;.[ ",
"9 w e e q q q r t t t C Z C Z T T T T Y Q 4 $ $ $ < < x gXOX+X#X7XwX5XD.0.q.0.$.$.%.$.%.%.O.O.6.4.u.m.p.oXy.y.g +...[ ;.[ ;.[ [ ",
"w 9 e e q q r r r t t C Y t A Y Z Z T Y j + . . $ $ & n gXOXOX+XXXG.y.l 9 r f f f ^ W ^ | W O.4.2.4.Y.p.7.y.n v | *.[ [ [ [ [ } ",
"w w 9 9 w q u t t t r f t Y C Y Z Y Z Q j @ . . .   $ N +XG.#X#X$X+Xy.v d 2 9 q q f Y 4.t.t.4.2.5.5.y.y.n b b p O. .[ [ [ [ ( ( ",
"3 3 9 w 9 q q q r q t t t t C C Z Z Z F h @ $ . . .   b S.S.XXXX+XXXJ.9.v 9.l ! 9.! ~ 3.^ ^ g g g d i * .     > W [ ( [ [ ( [ ( "
};
