/* XPM */
static char *_646668181281[] = {
/* columns rows colors chars-per-pixel */
"64 64 256 2 ",
"   c black",
".  c #010101",
"X  c #020202",
"o  c gray1",
"O  c #040404",
"+  c gray2",
"@  c #060606",
"#  c #070707",
"$  c gray3",
"%  c #090909",
"&  c gray4",
"*  c #0B0B0B",
"=  c #0C0C0C",
"-  c gray5",
";  c #0E0E0E",
":  c gray6",
">  c #101010",
",  c #111111",
"<  c gray7",
"1  c #131313",
"2  c gray8",
"3  c #151515",
"4  c #161616",
"5  c gray9",
"6  c #181818",
"7  c #191919",
"8  c gray10",
"9  c #1B1B1B",
"0  c gray11",
"q  c #1D1D1D",
"w  c #1E1E1E",
"e  c gray12",
"r  c #202020",
"t  c gray13",
"y  c #222222",
"u  c #232323",
"i  c gray14",
"p  c #252525",
"a  c gray15",
"s  c #272727",
"d  c #282828",
"f  c gray16",
"g  c #2A2A2A",
"h  c gray17",
"j  c #2C2C2C",
"k  c #2D2D2D",
"l  c gray18",
"z  c #2F2F2F",
"x  c gray19",
"c  c #313131",
"v  c #323232",
"b  c gray20",
"n  c #343434",
"m  c #353535",
"M  c gray21",
"N  c #373737",
"B  c gray22",
"V  c #393939",
"C  c #3A3A3A",
"Z  c gray23",
"A  c #3C3C3C",
"S  c gray24",
"D  c #3E3E3E",
"F  c #3F3F3F",
"G  c gray25",
"H  c #414141",
"J  c gray26",
"K  c #434343",
"L  c #444444",
"P  c gray27",
"I  c #464646",
"U  c gray28",
"Y  c #484848",
"T  c #494949",
"R  c gray29",
"E  c #4B4B4B",
"W  c #4C4C4C",
"Q  c gray30",
"!  c #4E4E4E",
"~  c gray31",
"^  c #505050",
"/  c #515151",
"(  c gray32",
")  c #535353",
"_  c gray33",
"`  c #555555",
"'  c #565656",
"]  c gray34",
"[  c #585858",
"{  c gray35",
"}  c #5A5A5A",
"|  c #5B5B5B",
" . c gray36",
".. c #5D5D5D",
"X. c gray37",
"o. c #5F5F5F",
"O. c #606060",
"+. c gray38",
"@. c #626262",
"#. c gray39",
"$. c #646464",
"%. c #656565",
"&. c gray40",
"*. c #676767",
"=. c #686868",
"-. c DimGray",
";. c #6A6A6A",
":. c gray42",
">. c #6C6C6C",
",. c #6D6D6D",
"<. c gray43",
"1. c #6F6F6F",
"2. c gray44",
"3. c #717171",
"4. c #727272",
"5. c gray45",
"6. c #747474",
"7. c gray46",
"8. c #767676",
"9. c #777777",
"0. c gray47",
"q. c #797979",
"w. c gray48",
"e. c #7B7B7B",
"r. c #7C7C7C",
"t. c gray49",
"y. c #7E7E7E",
"u. c gray50",
"i. c #808080",
"p. c #818181",
"a. c gray51",
"s. c #838383",
"d. c #848484",
"f. c gray52",
"g. c #868686",
"h. c gray53",
"j. c #888888",
"k. c #898989",
"l. c gray54",
"z. c #8B8B8B",
"x. c gray55",
"c. c #8D8D8D",
"v. c #8E8E8E",
"b. c gray56",
"n. c #909090",
"m. c gray57",
"M. c #929292",
"N. c #939393",
"B. c gray58",
"V. c #959595",
"C. c gray59",
"Z. c #979797",
"A. c #989898",
"S. c gray60",
"D. c #9A9A9A",
"F. c #9B9B9B",
"G. c gray61",
"H. c #9D9D9D",
"J. c gray62",
"K. c #9F9F9F",
"L. c #A0A0A0",
"P. c gray63",
"I. c #A2A2A2",
"U. c gray64",
"Y. c #A4A4A4",
"T. c #A5A5A5",
"R. c gray65",
"E. c #A7A7A7",
"W. c gray66",
"Q. c #A9A9A9",
"!. c #AAAAAA",
"~. c gray67",
"^. c #ACACAC",
"/. c gray68",
"(. c #AEAEAE",
"). c #AFAFAF",
"_. c gray69",
"`. c #B1B1B1",
"'. c #B2B2B2",
"]. c gray70",
"[. c #B4B4B4",
"{. c gray71",
"}. c #B6B6B6",
"|. c #B7B7B7",
" X c gray72",
".X c #B9B9B9",
"XX c gray73",
"oX c #BBBBBB",
"OX c #BCBCBC",
"+X c gray74",
"@X c gray",
"#X c gray75",
"$X c #C0C0C0",
"%X c #C1C1C1",
"&X c gray76",
"*X c #C3C3C3",
"=X c gray77",
"-X c #C5C5C5",
";X c #C6C6C6",
":X c gray78",
">X c #C8C8C8",
",X c gray79",
"<X c #CACACA",
"1X c #CBCBCB",
"2X c gray80",
"3X c #CDCDCD",
"4X c #CECECE",
"5X c gray81",
"6X c #D0D0D0",
"7X c gray82",
"8X c #D2D2D2",
"9X c LightGray",
"0X c gray83",
"qX c #D5D5D5",
"wX c gray84",
"eX c #D7D7D7",
"rX c #D8D8D8",
"tX c gray85",
"yX c #DADADA",
"uX c gray86",
"iX c gainsboro",
"pX c #DDDDDD",
"aX c gray87",
"sX c #DFDFDF",
"dX c gray88",
"fX c #E1E1E1",
"gX c #E2E2E2",
"hX c gray89",
"jX c #E4E4E4",
"kX c gray90",
"lX c #E6E6E6",
"zX c #E7E7E7",
"xX c gray91",
"cX c #E9E9E9",
"vX c #EAEAEA",
"bX c gray92",
"nX c #ECECEC",
"mX c gray93",
"MX c #EEEEEE",
"NX c #EFEFEF",
"BX c gray94",
"VX c #F1F1F1",
"CX c gray95",
"ZX c #F3F3F3",
"AX c #F4F4F4",
"SX c gray96",
"DX c #F6F6F6",
"FX c gray97",
"GX c #F8F8F8",
"HX c #F9F9F9",
"JX c gray98",
"KX c #FBFBFB",
"LX c gray99",
"PX c #FDFDFD",
"IX c #FEFEFE",
"UX c white",
/* pixels */
"UXUXUXIXPXNXMXMXmXVXUXUXUXUXKXMXMXMXmXZXUXUXUXUXGXbXbXvXvXAXUXUXIXUXAXvXcXbXvXGXUXUXUXUXZXmXMXMXmXKXUXUXUXUXVXmXMXMXMXPXUXUXUXUX",
"UXUXUXUXPXNXMXMXmXVXUXUXUXUXKXMXMXMXmXZXUXIXKXPXJXDXPXIXJXJXUXPXPXUXKXJXIXPXDXJXLXKXIXUXZXmXMXMXmXKXUXUXUXUXVXmXMXMXMXPXUXUXUXUX",
"UXUXUXUXPXNXMXMXmXVXUXUXUXUXKXMXMXMXnXVXPXUXIXUXBX%XC.<.~ A x f f x A ~ 1.Z.$XBXUXUXUXLXVXMXMXMXmXKXUXUXUXUXVXMXMXMXNXPXUXUXUXUX",
"IXUXUXUXPXMXMXMXmXVXUXUXUXUXKXmXMXnXvXFXUXBX^.X.t o                     .   X r ..~.BXUXFXvXbXMXmXKXUXUXUXUXVXmXmXMXMXPXUXUXUXUX",
"PXPXPXPXKXBXBXBXBXVXPXPXPXPXJXNXnXGXPX2X2.7   .   . @ $ # O X X X X + # $ @ X   .   6 1.2XPXGXnXNXJXPXIXPXPXCXBXBXBXBXKXPXPXPXPX",
"NXNXNXMXBXIXIXIXUXLXMXNXNXMXBXPXUXrX .@     O $ o                             O $ +     @  .rXUXPXBXMXNXNXMXKXUXIXIXIXBXMXNXBXMX",
"MXMXMXMXBXIXUXUXUXLXMXMXMXvXGXSXq.$   . @ O       6 R 9.U.E.-     - R.U.9.R 7       O @     % w.SXHXvXMXNXMXLXUXUXUXUXBXmXMXMXMX",
"MXMXMXMXBXIXUXUXUXLXMXmXnXIX@Xf   X + o     9 &.{.VXUXPXUXvX<     < vXUXPXUXCX}.*.8     o @ o   h OXIXbXmXBXLXUXUXUXIXBXMXMXMXMX",
"MXmXmXmXBXUXUXUXUXLXbXMXKXg.+ . O O .   h V.hXKXPXUXIXJXUXhX>     : gXUXJXIXUXPXLXjXZ.k   . O O   O g.KXMXnXLXUXUXUXUXNXmXmXmXmX",
"VXVXVXVXCXLXLXLXLXGXZXFX+.  o + o   w G.CXUXAXmXCXLXLXKXUXkX,     > hXUXKXLXLXZXmXAXUXZXH.w   o + o   O.FXZXGXPXLXLXLXCXVXVXCXVX",
"IXUXUXUXPXNXMXMXnXVXJX'   + o .   +.hXUXPXLXIXUXGXmXMXnXBXhX2     2 hXVXmXMXmXGXUXIXLXPXUXjX+.  X o O   ' JXBXnXMXMXMXPXUXUXUXUX",
"UXUXUXUXPXNXMXmXMXFX`   @ O   : L.UXBXNXUXIXUXUXGXmXMXmXVXhX2     2 hXZXmXMXmXGXUXUXUXUXNXVXIXP.:   O +   ` DXMXmXMXMXPXUXUXUXUX",
"UXIXUXUXPXNXMXnXJX@.  + O   y >XUXbXnXAXUXUXUXUXGXmXMXmXCXhX2     2 hXCXmXMXmXGXUXUXUXUXAXnXvXUX,Xu   o O   @.KXnXmXNXPXUXUXUXUX",
"UXUXUXUXPXMXcXIXh.  O O   k jXHXcXMXnXZXUXUXUXUXGXnXMXnXVXhX1 . . 2 gXVXnXMXnXGXUXUXUXUXZXnXMXcXHXjXk   O O   h.IXcXMXPXUXIXUXUX",
"KXKXKXKXJXNXPXOXO X o   u fXUXMXZXCXCXSXKXKXKXKXGXVXCXVXDXgX1     1 hXDXVXCXCXFXLXLXKXKXSXCXCXCXMXUXfXu   o . O OXPXNXJXKXKXKXKX",
"MXMXMXmXNXUXZXk   O   : ,XHXmXUXUXUXUXJXmXMXMXnXAXUXUXIXUXkX>     > kXUXIXUXUXSXnXMXMXmXJXUXUXUXUXmXHX,X:   O   l AXUXNXmXMXMXMX",
"MXMXMXMXnXIXw.  O X . I.UXcXZXUXUXUXUXJXmXMXMXmXSXUXUXPXUXjX>     > kXUXPXUXUXSXmXMXMXMXJXUXUXUXUXZXxXPXI.  X +   w.UXmXMXMXMXMX",
"MXMXMXnXGX0X&   O   %.IXbXMXCXIXUXUXIXJXmXMXNXmXAXUXUXPXUXkX>     > kXUXPXIXUXSXmXMXMXMXJXUXUXUXUXCXmXvXIX%.  O   & 0XGXnXMXMXMX",
"mXmXmXvXPXO.  +   r hXBXnXnXCXUXUXUXUXGXnXmXmXnXAXUXUXIXUXkX>     > kXUXIXUXUXAXmXMXmXbXJXUXUXUXUXVXnXnXBXgXr   + . O.PXvXmXmXmX",
"ZXZXVXLX2X# . o   J.UXNXAXZXSXJXJXJXJXGXZXZXZXZXDXJXJXGXUXjX,     , jXUXJXJXJXDXZXCXZXZXGXJXJXJXKXSXZXAXBXUXH.  o   # 2XLXCXZXAX",
"UXUXLXUX2.. @   x ZXUXUXUXIXKXmXmXmXbXZXUXUXUXUXGXnXmXnXBXgX2     2 gXBXnXmXnXGXUXUXUXUXZXnXnXmXnXKXUXUXUXUXZXx   @ . 2.UXLXUXUX",
"UXIXUXMX9   O   S.UXKXUXUXUXKXMXMXMXmXAXUXUXUXUXGXmXMXMXCXhX2     2 hXCXmXNXmXGXUXUXIXUXZXmXMXMXMXKXUXUXUXKXUXZ.  O   9 MXUXIXUX",
"IXKXUX~.  +   e kXZXIXUXUXIXKXMXNXMXmXZXUXUXUXUXFXmXMXmXCXhX2     2 hXCXmXMXmXGXUXIXUXUXAXmXMXMXMXKXUXUXUXIXAXkXw   O   ~.UXLXUX",
"UXLXUXX.  # . -.LXmXUXUXUXUXKXnXmXMXnXZXUXUXUXUXHXnXmXnXBXgX2     2 fXBXnXmXnXGXUXUXUXUXZXnXmXmXnXKXUXUXUXUXmXLX=.  #   X.UXLXUX",
"GXJXVXy   o    XUXZXGXGXGXHXFXAXSXSXAXDXHXGXGXHXFXAXSXZXHXjX1     < jXHXZXSXSXFXGXGXGXGXSXAXSXSXAXFXHXGXGXGXCXUX|.  o   y VXJXGX",
"bXDX%X  .   8 BXUXKXmXmXmXnXCXUXUXUXUXHXnXnXmXnXZXUXUXIXUXkX>     > kXUXIXUXUXAXnXmXmXnXKXUXUXIXUXVXnXmXmXmXKXUXBX8   X . %XFXbX",
"bXPXC.  @   R UXPXLXMXMXMXMXZXUXUXUXUXJXmXMXMXmXSXIXUXPXUXkX>     > kXUXPXIXUXSXmXNXMXMXJXUXUXUXUXCXmXMXMXMXKXPXUXR   @   Z.PXbX",
"vXIX<.. $   q.UXKXLXMXMXMXMXCXUXUXIXUXJXmXNXBXmXSXUXIXPXIXkX>     > kXUXPXIXUXSXmXNXMXMXHXUXUXUXUXCXmXMXMXMXLXKXUXq.  $   1.IXcX",
"vXHX^   #   I.UXLXLXnXmXmXnXCXUXUXUXUXGXnXMXmXnXAXUXUXIXUXkX>     > kXUXIXUXUXAXbXmXMXnXJXUXUXUXUXVXnXmXmXmXLXLXUXI.  #   ^ KXvX",
"AXLXA   o   }.UXAXFXDXDXDXDXDXDXFXFXGXFXDXDXDXDXDXFXFXDXLXjX1     < jXLXDXFXFXFXDXDXDXDXFXFXFXFXFXDXSXDXDXDXFXAXUX}.  O   A PXAX",
"UXUXx   o   @XFXvXBXUXUXIXUXJXnXmXmXnXCXUXIXUXUXGXnXnXnXBXgX2     2 gXBXnXmXbXGXUXUXUXUXZXnXmXmXnXKXUXUXUXUXBXvXFX+X  o   x UXUX",
"UXPXd . . . :XFXnXVXUXUXUXUXKXMXMXNXmXZXIXPXIXUXGXmXNXMXVXfX3     2 fXVXmXMXmXGXUXIXUXUXAXmXMXMXMXJXUXUXUXUXVXnXFX:X. X   d LXUX",
"UXPXd   . X ;XFXnXVXUXIXUXUXKXMXMXNXmXZXUXUXUXUXGXmXNXnXCXzX1     < zXZXnXBXmXFXUXIXUXUXSXmXMXMXMXKXUXUXUXUXVXnXFX:XX X   f LXUX",
"UXUXx   o   @XFXvXBXUXUXUXUXKXnXmXmXnXZXUXUXUXUXGXnXnXnXJX-.  X X   -.JXnXnXnXGXUXUXUXIXZXnXnXmXmXKXUXUXIXUXBXvXFX@X  o   x UXUX",
"AXPXA   O   {.UXAXFXDXSXDXSXDXFXFXFXFXFXDXDXDXSXFXDXSXUX;.  X   . X   ;.UXDXDXFXDXFXDXDXFXFXFXFXGXDXDXDXDXDXFXAXUX{.  @   A PXAX",
"vXHX^   @   I.UXLXLXmXmXmXnXVXUXUXUXUXHXnXmXmXnXZXIXUX2.  O       . O   2.UXIXZXnXmXmXnXJXUXUXUXUXCXnXmXmXmXLXLXUXI.  # . ^ GXcX",
"cXIX1.  $   q.UXLXLXMXmXMXMXCXUXUXUXUXJXmXMXNXnXCXUX2.  o .         . O   2.UXZXnXNXMXMXHXUXUXUXUXCXmXMXMXMXLXKXUXq.  $   1.IXvX",
"bXPXC.  +   T UXPXLXMXMXMXMXCXUXUXIXUXJXMXNXMXnXUX2.  O o .   .     X o O   2.UXnXmXNXMXHXUXUXUXUXCXmXMXMXMXKXLXUXT   #   C.PXbX",
"bXDX%X  .   8 VXUXKXmXmXmXnXCXUXUXUXUXHXnXnXnXHX-.  o o   1 *     & 1   o O   =.JXnXnXnXJXUXUXUXUXVXnXmXmXmXKXUXVX8 . X   %XDXvX",
"GXJXVXy   o   |.UXCXHXGXGXHXFXAXAXSXAXDXFXDXUX:.  O O   7 |.9     9  X8   O O   ;.UXDXFXFXAXSXSXAXGXHXGXGXFXCXUX|.  O   y CXJXGX",
"UXLXUXX.  #   =.LXnXUXUXUXUXKXmXmXmXnXCXIXUX3.  X o   3 ,XBX,     , BX<X3   o O   3.UXIXCXnXmXmXnXKXUXUXUXUXmXLX=.  #   o.UXLXUX",
"UXKXUX~.  O   w jXAXIXUXUXUXKXMXMXNXnXVXUX1.  O O   3 -XUXaX2     2 aXUX;X4 . O O   1.UXVXnXNXMXMXKXUXUXUXIXAXjXw   O   ~.UXLXUX",
"UXIXUXMX9   O   A.UXKXUXUXUXKXMXNXnXmXUX2.  O o   4 ;XKXmXhX2     2 hXmXKX;X5 . o +   2.UXmXmXNXMXKXUXUXUXKXUXA.  O   0 MXUXIXUX",
"UXUXLXUX2.  @   z ZXUXUXIXUXKXmXnXnXJX=.  O O   3 -XKXxXVXhX2     2 gXVXxXJX-X4   O O   =.JXmXnXmXLXUXUXUXUXZXz   @   2.IXLXUXUX",
"ZXZXVXLX2X#   O   F.UXNXAXZXSXGXFXUX:.  O o   4 ,XUXDXHXUXjX<     , kXIXGXSXUX<X4   O O   :.UXGXHXSXZXAXNXUXF.  O   # 2XKXVXZXZX",
"mXmXmXvXPXO.  @   e gXBXnXnXBXPXUX2.  O O   4 -XUXLXUXIXUXkX>     > kXUXPXUXLXUX;X4   O +   2.UXPXBXnXnXBXgXe   +   O.PXvXmXmXmX",
"MXMXMXnXGXqX*   O   #.IXbXmXNXUX1.  o o   5 :XJXBXUXUXPXUXkX,     > kXUXPXUXUXBXJX:X4   o +   1.UXBXnXbXLX$.  O   & qXGXnXMXMXMX",
"MXMXMXMXmXUXe.  O X   P.IXcXUX1.  O O   4 ;XLXcXSXUXUXPXUXkX>     > kXUXPXUXUXSXxXLX;X4   O O   1.UXcXIXP.  X + . e.UXmXMXMXMXMX",
"mXmXmXmXNXUXAXl   O   ; :XUX&.  o X   4 ;XKXcXmXAXUXUXIXUXlX>     > kXUXUXUXUXAXnXcXLX:X4   o +   %.IX:X:   O   l AXUXNXmXmXmXmX",
"KXKXKXKXKXNXPXOXo . X   z @.  o O   3 ,XUXFXKXKXFXCXCXVXDXhX1     1 hXDXVXCXVXGXLXKXFXUX,X4   O o   @.z   O X O +XIXNXJXKXKXKXKX",
"UXUXUXUXPXMXcXPXj.  o X .   X X   4 -XUXLXUXUXUXGXnXmXnXBXgX2     2 gXVXnXmXnXGXUXIXIXLXUX-X4   . o   . X O   j.IXvXMXPXUXUXUXUX",
"UXUXUXUXPXNXmXnXKX#.  @ . o .   w -XHXNXUXUXUXUXGXmXNXmXCXhX2     2 hXCXmXMXmXGXUXUXUXUXNXHX-Xw   X o o + . @.JXnXMXNXPXUXUXUXUX",
"UXUXUXUXPXNXMXmXMXFX'   O   o   t.UXmXNXUXIXUXUXGXmXMXmXVXhX2     2 hXCXmXMXmXGXUXUXUXUXNXmXUXt.  o   +   ` FXNXmXMXMXPXUXUXUXUX",
"IXUXUXUXPXMXMXMXnXVXJX'   + X .   o.hXUXLXKXIXUXGXmXMXmXVXhX2 .   2 hXCXmXMXmXGXUXIXLXPXUXjXo.  . X +   ' KXVXnXMXmXMXPXUXUXUXUX",
"VXBXVXVXCXKXLXLXPXFXAXFX+.. o o X   q F.CXUXAXmXCXKXLXKXIXkX,     > kXUXKXKXLXCXmXAXUXCXG.w   . o o   +.DXZXGXPXLXLXKXCXVXVXVXVX",
"mXmXmXmXBXUXUXUXUXLXbXMXKXg.O   + O .   j C.hXLXPXUXPXJXUXhX>     > gXUXJXPXUXPXPXjXZ.k   . O +   O g.KXMXbXLXUXUXUXUXBXmXMXmXmX",
"mXMXMXMXBXUXIXUXUXLXMXmXnXIX+Xg   X + o     9 %.}.BXUXPXUXvX<     , vXUXPXUXVX}.&.9     O + X . g OXIXnXmXNXLXUXUXUXIXBXmXMXMXMX",
"MXMXMXMXBXIXUXUXUXLXMXMXMXvXHXDXw.%   X @ O       6 T 0.U.E.-     - E.U.0.R 7       O # X   % w.SXHXvXMXMXMXLXUXUXUXUXBXmXMXMXMX",
"MXMXMXMXVXIXUXUXUXLXMXMXNXMXBXPXUXrX..#     O # o           . X   .           o # O     @  .tXUXPXBXMXNXMXMXLXUXIXUXIXBXMXMXMXMX",
"PXPXPXPXKXVXBXBXNXCXPXPXPXIXJXNXnXFXPX2X2.7       X @ $ # O o X X X + @ $ # X   .   6 1.2XPXGXnXMXHXIXPXPXPXCXBXBXBXBXLXPXPXPXIX",
"UXUXUXUXPXMXmXMXmXVXUXUXUXUXKXmXMXnXvXFXUXNX^.o.y X                         X t ..~.BXUXFXvXbXMXmXKXUXUXUXUXBXmXMXmXMXPXUXUXUXUX",
"IXUXUXUXPXNXMXMXmXVXUXUXUXUXKXMXMXMXmXCXPXUXIXUXVX&XC.1.~ A x f f x A ^ 1.C.%XVXUXUXUXLXVXmXMXMXmXLXUXUXUXUXVXMXMXMXMXPXUXUXUXIX",
"UXUXIXUXPXNXMXMXmXVXUXUXUXUXKXMXMXMXmXCXUXIXKXLXHXDXPXIXJXKXUXLXPXUXJXJXIXPXDXJXPXKXIXUXAXmXMXMXmXKXUXUXUXUXVXNXMXMXMXPXUXUXUXUX",
"UXUXIXUXLXNXMXMXmXVXUXUXIXUXJXMXMXMXmXZXUXIXPXUXFXbXvXcXbXAXUXUXUXUXAXvXvXvXvXFXUXIXIXUXZXmXMXMXmXKXUXIXUXIXVXmXMXMXMXPXUXIXUXUX"
};
